<?xml version="1.0" encoding="UTF-8" standalone="no"?>
<!DOCTYPE svg PUBLIC "-//W3C//DTD SVG 1.1//EN"
 "http://www.w3.org/Graphics/SVG/1.1/DTD/svg11.dtd">
<!-- Generated by graphviz version 2.40.1 (20161225.0304)
 -->
<!-- Title: G Pages: 1 -->
<svg width="5276pt" height="1139pt"
 viewBox="0.00 0.00 5275.99 1138.99" xmlns="http://www.w3.org/2000/svg" xmlns:xlink="http://www.w3.org/1999/xlink">
<g id="graph0" class="graph" transform="scale(1 1) rotate(0) translate(7.992 1130.9981)">
<title>G</title>
<polygon fill="#eeeeff" stroke="transparent" points="-7.992,7.992 -7.992,-1130.9981 5268.0017,-1130.9981 5268.0017,7.992 -7.992,7.992"/>
<!-- ../package.json -->
<g id="node1" class="node">
<title>../package.json</title>
<ellipse fill="none" stroke="#0c821d" stroke-width="4" cx="775.5083" cy="-861.5933" rx="79.3981" ry="79.3981"/>
<text text-anchor="middle" x="775.5083" y="-859.1933" font-family="Fira Code" font-size="12.00" fill="#0c821d">../package.json</text>
</g>
<!-- index.js -->
<g id="node2" class="node">
<title>index.js</title>
<ellipse fill="none" stroke="#242424" stroke-width="4" cx="1056.5083" cy="-1075.9977" rx="47.0167" ry="47.0167"/>
<text text-anchor="middle" x="1056.5083" y="-1073.5978" font-family="Fira Code" font-size="12.00" fill="#242424">index.js</text>
</g>
<!-- index.js&#45;&gt;../package.json -->
<g id="edge1" class="edge">
<title>index.js&#45;&gt;../package.json</title>
<path fill="none" stroke="#242424" d="M1015.5308,-1052.4081C975.4967,-1028.6131 913.5921,-989.7945 864.5083,-949.9894 855.5225,-942.7022 846.4334,-934.6327 837.6708,-926.4195"/>
<polygon fill="#242424" stroke="#242424" points="840.0546,-923.8565 830.3966,-919.5006 835.2303,-928.9286 840.0546,-923.8565"/>
</g>
<!-- testing/helper.js -->
<g id="node3" class="node">
<title>testing/helper.js</title>
<ellipse fill="none" stroke="#0c821d" stroke-width="4" cx="961.5083" cy="-861.5933" rx="88.2923" ry="88.2923"/>
<text text-anchor="middle" x="961.5083" y="-859.1933" font-family="Fira Code" font-size="12.00" fill="#0c821d">testing/helper.js</text>
</g>
<!-- index.js&#45;&gt;testing/helper.js -->
<g id="edge2" class="edge">
<title>index.js&#45;&gt;testing/helper.js</title>
<path fill="none" stroke="#242424" d="M1037.398,-1032.8677C1027.1265,-1009.6862 1014.0576,-980.1911 1001.6708,-952.2356"/>
<polygon fill="#242424" stroke="#242424" points="1004.7523,-950.5502 997.5013,-942.8254 998.3524,-953.386 1004.7523,-950.5502"/>
</g>
<!-- tools/builder.js -->
<g id="node4" class="node">
<title>tools/builder.js</title>
<ellipse fill="none" stroke="#242424" stroke-width="4" cx="1151.5083" cy="-861.5933" rx="83.5954" ry="83.5954"/>
<text text-anchor="middle" x="1151.5083" y="-859.1933" font-family="Fira Code" font-size="12.00" fill="#242424">tools/builder.js</text>
</g>
<!-- index.js&#45;&gt;tools/builder.js -->
<g id="edge3" class="edge">
<title>index.js&#45;&gt;tools/builder.js</title>
<path fill="none" stroke="#242424" d="M1075.6187,-1032.8677C1086.4237,-1008.482 1100.3244,-977.1097 1113.2702,-947.8925"/>
<polygon fill="#242424" stroke="#242424" points="1116.5836,-949.0543 1117.4347,-938.4937 1110.1837,-946.2185 1116.5836,-949.0543"/>
</g>
<!-- tools/bundler.js -->
<g id="node5" class="node">
<title>tools/bundler.js</title>
<ellipse fill="none" stroke="#242424" stroke-width="4" cx="2351.5083" cy="-861.5933" rx="83.5954" ry="83.5954"/>
<text text-anchor="middle" x="2351.5083" y="-859.1933" font-family="Fira Code" font-size="12.00" fill="#242424">tools/bundler.js</text>
</g>
<!-- index.js&#45;&gt;tools/bundler.js -->
<g id="edge4" class="edge">
<title>index.js&#45;&gt;tools/bundler.js</title>
<path fill="none" stroke="#242424" d="M1102.9799,-1068.3038C1291.6599,-1037.0653 2002.5595,-919.3664 2258.7563,-876.9497"/>
<polygon fill="#242424" stroke="#242424" points="2259.4846,-880.3768 2268.7786,-875.2903 2258.3412,-873.4708 2259.4846,-880.3768"/>
</g>
<!-- Ⓜ nps&#45;utils/dist/index.js -->
<g id="node6" class="node">
<title>Ⓜ nps&#45;utils/dist/index.js</title>
<ellipse fill="none" stroke="#0c821d" stroke-width="4" cx="138.5083" cy="-347.0986" rx="138.5167" ry="138.5167"/>
<text text-anchor="middle" x="138.5083" y="-345.8986" font-family="Fira Code" font-size="12.00" fill="#0c821d">Ⓜ nps&#45;utils/dist/index.js</text>
</g>
<!-- tools/builder.js&#45;&gt;Ⓜ nps&#45;utils/dist/index.js -->
<g id="edge5" class="edge">
<title>tools/builder.js&#45;&gt;Ⓜ nps&#45;utils/dist/index.js</title>
<path fill="none" stroke="#242424" d="M1096.4579,-798.3867C1084.901,-788.4575 1072.0686,-779.4316 1058.5083,-773.1972 901.6223,-701.0685 424.4179,-796.764 285.5083,-694.1972 221.2747,-646.769 184.8778,-565.7052 164.3742,-493.8413"/>
<polygon fill="#242424" stroke="#242424" points="167.6264,-492.4703 161.5853,-483.7665 160.8801,-494.3378 167.6264,-492.4703"/>
</g>
<!-- Ⓜ rollup&#45;plugin&#45;alias/dist/rollup&#45;plugin&#45;alias.js -->
<g id="node7" class="node">
<title>Ⓜ rollup&#45;plugin&#45;alias/dist/rollup&#45;plugin&#45;alias.js</title>
<ellipse fill="none" stroke="#0c821d" stroke-width="4" cx="552.5083" cy="-347.0986" rx="257.9057" ry="257.9057"/>
<text text-anchor="middle" x="552.5083" y="-345.8986" font-family="Fira Code" font-size="12.00" fill="#0c821d">Ⓜ rollup&#45;plugin&#45;alias/dist/rollup&#45;plugin&#45;alias.js</text>
</g>
<!-- tools/bundler.js&#45;&gt;Ⓜ rollup&#45;plugin&#45;alias/dist/rollup&#45;plugin&#45;alias.js -->
<g id="edge6" class="edge">
<title>tools/bundler.js&#45;&gt;Ⓜ rollup&#45;plugin&#45;alias/dist/rollup&#45;plugin&#45;alias.js</title>
<path fill="none" stroke="#242424" d="M2267.629,-856.2777C1965.8487,-836.63 946.4838,-765.5503 819.5083,-694.1972 769.072,-665.8549 725.0283,-623.6923 688.0332,-578.4301"/>
<polygon fill="#242424" stroke="#242424" points="690.6818,-576.1387 681.6835,-570.5457 685.2299,-580.5294 690.6818,-576.1387"/>
</g>
<!-- Ⓜ rollup&#45;plugin&#45;babel&#45;minify/dist/rollup&#45;plugin&#45;babel&#45;minify.js -->
<g id="node8" class="node">
<title>Ⓜ rollup&#45;plugin&#45;babel&#45;minify/dist/rollup&#45;plugin&#45;babel&#45;minify.js</title>
<ellipse fill="none" stroke="#0c821d" stroke-width="4" cx="1155.5083" cy="-347.0986" rx="327.4659" ry="327.4659"/>
<text text-anchor="middle" x="1155.5083" y="-345.8986" font-family="Fira Code" font-size="12.00" fill="#0c821d">Ⓜ rollup&#45;plugin&#45;babel&#45;minify/dist/rollup&#45;plugin&#45;babel&#45;minify.js</text>
</g>
<!-- tools/bundler.js&#45;&gt;Ⓜ rollup&#45;plugin&#45;babel&#45;minify/dist/rollup&#45;plugin&#45;babel&#45;minify.js -->
<g id="edge7" class="edge">
<title>tools/bundler.js&#45;&gt;Ⓜ rollup&#45;plugin&#45;babel&#45;minify/dist/rollup&#45;plugin&#45;babel&#45;minify.js</title>
<path fill="none" stroke="#242424" d="M2268.0857,-851.8252C2079.4133,-828.7069 1625.8862,-767.0758 1491.5083,-694.1972 1448.6558,-670.9565 1407.9412,-640.3759 1370.6027,-606.9864"/>
<polygon fill="#242424" stroke="#242424" points="1372.9445,-604.3851 1363.1805,-600.2724 1368.2486,-609.5764 1372.9445,-604.3851"/>
</g>
<!-- Ⓜ rollup&#45;plugin&#45;buble/dist/rollup&#45;plugin&#45;buble.cjs.js -->
<g id="node9" class="node">
<title>Ⓜ rollup&#45;plugin&#45;buble/dist/rollup&#45;plugin&#45;buble.cjs.js</title>
<ellipse fill="none" stroke="#0c821d" stroke-width="4" cx="1778.5083" cy="-347.0986" rx="277.6371" ry="277.6371"/>
<text text-anchor="middle" x="1778.5083" y="-345.8986" font-family="Fira Code" font-size="12.00" fill="#0c821d">Ⓜ rollup&#45;plugin&#45;buble/dist/rollup&#45;plugin&#45;buble.cjs.js</text>
</g>
<!-- tools/bundler.js&#45;&gt;Ⓜ rollup&#45;plugin&#45;buble/dist/rollup&#45;plugin&#45;buble.cjs.js -->
<g id="edge8" class="edge">
<title>tools/bundler.js&#45;&gt;Ⓜ rollup&#45;plugin&#45;buble/dist/rollup&#45;plugin&#45;buble.cjs.js</title>
<path fill="none" stroke="#242424" d="M2275.1627,-826.4261C2214.4315,-796.3344 2129.2078,-749.2275 2064.5083,-694.1972 2024.1941,-659.9079 1985.1783,-619.4433 1949.5996,-578.4774"/>
<polygon fill="#242424" stroke="#242424" points="1952.179,-576.1092 1942.9967,-570.8237 1946.8788,-580.6817 1952.179,-576.1092"/>
</g>
<!-- Ⓜ rollup&#45;plugin&#45;cleanup/dist/rollup&#45;plugin&#45;cleanup.js -->
<g id="node10" class="node">
<title>Ⓜ rollup&#45;plugin&#45;cleanup/dist/rollup&#45;plugin&#45;cleanup.js</title>
<ellipse fill="none" stroke="#0c821d" stroke-width="4" cx="2351.5083" cy="-347.0986" rx="277.6371" ry="277.6371"/>
<text text-anchor="middle" x="2351.5083" y="-345.8986" font-family="Fira Code" font-size="12.00" fill="#0c821d">Ⓜ rollup&#45;plugin&#45;cleanup/dist/rollup&#45;plugin&#45;cleanup.js</text>
</g>
<!-- tools/bundler.js&#45;&gt;Ⓜ rollup&#45;plugin&#45;cleanup/dist/rollup&#45;plugin&#45;cleanup.js -->
<g id="edge9" class="edge">
<title>tools/bundler.js&#45;&gt;Ⓜ rollup&#45;plugin&#45;cleanup/dist/rollup&#45;plugin&#45;cleanup.js</title>
<path fill="none" stroke="#242424" d="M2351.5083,-777.7858C2351.5083,-737.7273 2351.5083,-687.1661 2351.5083,-634.8981"/>
<polygon fill="#242424" stroke="#242424" points="2355.0084,-634.7733 2351.5083,-624.7734 2348.0084,-634.7734 2355.0084,-634.7733"/>
</g>
<!-- Ⓜ rollup&#45;plugin&#45;commonjs/dist/rollup&#45;plugin&#45;commonjs.cjs.js -->
<g id="node11" class="node">
<title>Ⓜ rollup&#45;plugin&#45;commonjs/dist/rollup&#45;plugin&#45;commonjs.cjs.js</title>
<ellipse fill="none" stroke="#0c821d" stroke-width="4" cx="2954.5083" cy="-347.0986" rx="307.2343" ry="307.2343"/>
<text text-anchor="middle" x="2954.5083" y="-345.8986" font-family="Fira Code" font-size="12.00" fill="#0c821d">Ⓜ rollup&#45;plugin&#45;commonjs/dist/rollup&#45;plugin&#45;commonjs.cjs.js</text>
</g>
<!-- tools/bundler.js&#45;&gt;Ⓜ rollup&#45;plugin&#45;commonjs/dist/rollup&#45;plugin&#45;commonjs.cjs.js -->
<g id="edge10" class="edge">
<title>tools/bundler.js&#45;&gt;Ⓜ rollup&#45;plugin&#45;commonjs/dist/rollup&#45;plugin&#45;commonjs.cjs.js</title>
<path fill="none" stroke="#242424" d="M2427.4371,-825.397C2487.7372,-794.8033 2572.5831,-747.5239 2638.5083,-694.1972 2676.9693,-663.0863 2714.958,-627.2134 2750.5359,-590.586"/>
<polygon fill="#242424" stroke="#242424" points="2753.1898,-592.8763 2757.6188,-583.2516 2748.1544,-588.0136 2753.1898,-592.8763"/>
</g>
<!-- Ⓜ rollup&#45;plugin&#45;git&#45;version/dist/rollup&#45;plugin&#45;git&#45;version.cjs.js -->
<g id="node12" class="node">
<title>Ⓜ rollup&#45;plugin&#45;git&#45;version/dist/rollup&#45;plugin&#45;git&#45;version.cjs.js</title>
<ellipse fill="none" stroke="#0c821d" stroke-width="4" cx="3617.5083" cy="-347.0986" rx="337.3316" ry="337.3316"/>
<text text-anchor="middle" x="3617.5083" y="-345.8986" font-family="Fira Code" font-size="12.00" fill="#0c821d">Ⓜ rollup&#45;plugin&#45;git&#45;version/dist/rollup&#45;plugin&#45;git&#45;version.cjs.js</text>
</g>
<!-- tools/bundler.js&#45;&gt;Ⓜ rollup&#45;plugin&#45;git&#45;version/dist/rollup&#45;plugin&#45;git&#45;version.cjs.js -->
<g id="edge11" class="edge">
<title>tools/bundler.js&#45;&gt;Ⓜ rollup&#45;plugin&#45;git&#45;version/dist/rollup&#45;plugin&#45;git&#45;version.cjs.js</title>
<path fill="none" stroke="#242424" d="M2434.988,-852.8268C2632.883,-831.0276 3124.8109,-770.5789 3270.5083,-694.1972 3312.7816,-672.0355 3353.1689,-642.9538 3390.4716,-611.0415"/>
<polygon fill="#242424" stroke="#242424" points="3393.1154,-613.382 3398.3844,-604.1902 3388.5334,-608.0901 3393.1154,-613.382"/>
</g>
<!-- Ⓜ rollup&#45;plugin&#45;node&#45;resolve/dist/rollup&#45;plugin&#45;node&#45;resolve.cjs.js -->
<g id="node13" class="node">
<title>Ⓜ rollup&#45;plugin&#45;node&#45;resolve/dist/rollup&#45;plugin&#45;node&#45;resolve.cjs.js</title>
<ellipse fill="none" stroke="#0c821d" stroke-width="4" cx="4319.5083" cy="-347.0986" rx="347.1972" ry="347.1972"/>
<text text-anchor="middle" x="4319.5083" y="-345.8986" font-family="Fira Code" font-size="12.00" fill="#0c821d">Ⓜ rollup&#45;plugin&#45;node&#45;resolve/dist/rollup&#45;plugin&#45;node&#45;resolve.cjs.js</text>
</g>
<!-- tools/bundler.js&#45;&gt;Ⓜ rollup&#45;plugin&#45;node&#45;resolve/dist/rollup&#45;plugin&#45;node&#45;resolve.cjs.js -->
<g id="edge12" class="edge">
<title>tools/bundler.js&#45;&gt;Ⓜ rollup&#45;plugin&#45;node&#45;resolve/dist/rollup&#45;plugin&#45;node&#45;resolve.cjs.js</title>
<path fill="none" stroke="#242424" d="M2435.3508,-860.0903C2726.025,-853.777 3687.7746,-823.3698 3963.5083,-694.1972 4006.2,-674.1975 4046.879,-646.9334 4084.461,-616.4147"/>
<polygon fill="#242424" stroke="#242424" points="4086.9355,-618.9112 4092.4332,-609.8544 4082.4876,-613.506 4086.9355,-618.9112"/>
</g>
<!-- Ⓜ rollup&#45;plugin&#45;progress/dist/rollup&#45;plugin&#45;progress.js -->
<g id="node14" class="node">
<title>Ⓜ rollup&#45;plugin&#45;progress/dist/rollup&#45;plugin&#45;progress.js</title>
<ellipse fill="none" stroke="#0c821d" stroke-width="4" cx="4972.5083" cy="-347.0986" rx="287.5028" ry="287.5028"/>
<text text-anchor="middle" x="4972.5083" y="-345.8986" font-family="Fira Code" font-size="12.00" fill="#0c821d">Ⓜ rollup&#45;plugin&#45;progress/dist/rollup&#45;plugin&#45;progress.js</text>
</g>
<!-- tools/bundler.js&#45;&gt;Ⓜ rollup&#45;plugin&#45;progress/dist/rollup&#45;plugin&#45;progress.js -->
<g id="edge13" class="edge">
<title>tools/bundler.js&#45;&gt;Ⓜ rollup&#45;plugin&#45;progress/dist/rollup&#45;plugin&#45;progress.js</title>
<path fill="none" stroke="#242424" d="M2435.5707,-859.3619C2828.3418,-848.4255 4472.21,-796.8181 4675.5083,-694.1972 4723.8311,-669.8049 4767.4982,-633.747 4805.5573,-593.9778"/>
<polygon fill="#242424" stroke="#242424" points="4808.2843,-596.1875 4812.5984,-586.5108 4803.1914,-591.3851 4808.2843,-596.1875"/>
</g>
</g>
</svg>
