<?xml version="1.0" encoding="UTF-8" standalone="no"?>
<!DOCTYPE svg PUBLIC "-//W3C//DTD SVG 1.1//EN"
 "http://www.w3.org/Graphics/SVG/1.1/DTD/svg11.dtd">
<!-- Generated by graphviz version 2.40.1 (20161225.0304)
 -->
<!-- Title: G Pages: 1 -->
<svg width="4981pt" height="1568pt"
 viewBox="0.00 0.00 4981.19 1567.60" xmlns="http://www.w3.org/2000/svg" xmlns:xlink="http://www.w3.org/1999/xlink">
<g id="graph0" class="graph" transform="scale(1 1) rotate(0) translate(7.992 1559.6036)">
<title>G</title>
<polygon fill="#eeeeff" stroke="transparent" points="-7.992,7.992 -7.992,-1559.6036 4973.1962,-1559.6036 4973.1962,7.992 -7.992,7.992"/>
<!-- ../package.json -->
<g id="node1" class="node">
<title>../package.json</title>
<ellipse fill="none" stroke="#0c821d" stroke-width="4" cx="3192.7028" cy="-1294.7975" rx="79.3981" ry="79.3981"/>
<text text-anchor="middle" x="3192.7028" y="-1292.3975" font-family="Fira Code" font-size="12.00" fill="#0c821d">../package.json</text>
</g>
<!-- index.js -->
<g id="node2" class="node">
<title>index.js</title>
<ellipse fill="none" stroke="#242424" stroke-width="4" cx="3503.7028" cy="-1504.6032" rx="47.0167" ry="47.0167"/>
<text text-anchor="middle" x="3503.7028" y="-1502.2032" font-family="Fira Code" font-size="12.00" fill="#242424">index.js</text>
</g>
<!-- index.js&#45;&gt;../package.json -->
<g id="edge1" class="edge">
<title>index.js&#45;&gt;../package.json</title>
<path fill="none" stroke="#242424" d="M3461.1288,-1484.5069C3414.7973,-1461.7535 3339.4798,-1422.1414 3280.7028,-1378.5949 3272.353,-1372.4088 3263.9585,-1365.5008 3255.8455,-1358.3778"/>
<polygon fill="#242424" stroke="#242424" points="3257.9486,-1355.5629 3248.164,-1351.4992 3253.2788,-1360.7777 3257.9486,-1355.5629"/>
</g>
<!-- math/add.js -->
<g id="node3" class="node">
<title>math/add.js</title>
<ellipse fill="none" stroke="#0c821d" stroke-width="4" cx="3350.7028" cy="-1294.7975" rx="60.6091" ry="60.6091"/>
<text text-anchor="middle" x="3350.7028" y="-1292.3975" font-family="Fira Code" font-size="12.00" fill="#0c821d">math/add.js</text>
</g>
<!-- index.js&#45;&gt;math/add.js -->
<g id="edge2" class="edge">
<title>index.js&#45;&gt;math/add.js</title>
<path fill="none" stroke="#242424" d="M3475.9956,-1466.609C3452.6984,-1434.662 3419.0394,-1388.5061 3392.4735,-1352.0768"/>
<polygon fill="#242424" stroke="#242424" points="3395.2953,-1350.0061 3386.5752,-1343.9886 3389.6395,-1354.1307 3395.2953,-1350.0061"/>
</g>
<!-- math/divide.js -->
<g id="node4" class="node">
<title>math/divide.js</title>
<ellipse fill="none" stroke="#0c821d" stroke-width="4" cx="3503.7028" cy="-1294.7975" rx="74.7005" ry="74.7005"/>
<text text-anchor="middle" x="3503.7028" y="-1292.3975" font-family="Fira Code" font-size="12.00" fill="#0c821d">math/divide.js</text>
</g>
<!-- index.js&#45;&gt;math/divide.js -->
<g id="edge3" class="edge">
<title>index.js&#45;&gt;math/divide.js</title>
<path fill="none" stroke="#242424" d="M3503.7028,-1457.5187C3503.7028,-1434.593 3503.7028,-1406.3094 3503.7028,-1379.7885"/>
<polygon fill="#242424" stroke="#242424" points="3507.2029,-1379.7252 3503.7028,-1369.7253 3500.2029,-1379.7253 3507.2029,-1379.7252"/>
</g>
<!-- math/multiply.js -->
<g id="node5" class="node">
<title>math/multiply.js</title>
<ellipse fill="none" stroke="#0c821d" stroke-width="4" cx="3679.7028" cy="-1294.7975" rx="83.5954" ry="83.5954"/>
<text text-anchor="middle" x="3679.7028" y="-1292.3975" font-family="Fira Code" font-size="12.00" fill="#0c821d">math/multiply.js</text>
</g>
<!-- index.js&#45;&gt;math/multiply.js -->
<g id="edge4" class="edge">
<title>index.js&#45;&gt;math/multiply.js</title>
<path fill="none" stroke="#242424" d="M3533.9583,-1468.5363C3557.3497,-1440.652 3590.4868,-1401.1499 3619.2548,-1366.8562"/>
<polygon fill="#242424" stroke="#242424" points="3621.9555,-1369.0827 3625.7009,-1359.1719 3616.5925,-1364.5839 3621.9555,-1369.0827"/>
</g>
<!-- math/subtract.js -->
<g id="node6" class="node">
<title>math/subtract.js</title>
<ellipse fill="none" stroke="#0c821d" stroke-width="4" cx="3865.7028" cy="-1294.7975" rx="83.5954" ry="83.5954"/>
<text text-anchor="middle" x="3865.7028" y="-1292.3975" font-family="Fira Code" font-size="12.00" fill="#0c821d">math/subtract.js</text>
</g>
<!-- index.js&#45;&gt;math/subtract.js -->
<g id="edge5" class="edge">
<title>index.js&#45;&gt;math/subtract.js</title>
<path fill="none" stroke="#242424" d="M3548.1892,-1488.461C3603.3223,-1467.4241 3699.0012,-1427.4882 3772.7028,-1378.5949 3781.2119,-1372.95 3789.7302,-1366.5545 3797.9678,-1359.874"/>
<polygon fill="#242424" stroke="#242424" points="3800.3115,-1362.4773 3805.7702,-1353.397 3795.8403,-1357.0913 3800.3115,-1362.4773"/>
</g>
<!-- rollup.js -->
<g id="node7" class="node">
<title>rollup.js</title>
<ellipse fill="none" stroke="#242424" stroke-width="4" cx="2357.7028" cy="-824.8042" rx="51.7142" ry="51.7142"/>
<text text-anchor="middle" x="2357.7028" y="-822.4042" font-family="Fira Code" font-size="12.00" fill="#242424">rollup.js</text>
</g>
<!-- Ⓜ rollup&#45;plugin&#45;alias/dist/rollup&#45;plugin&#45;alias.js -->
<g id="node8" class="node">
<title>Ⓜ rollup&#45;plugin&#45;alias/dist/rollup&#45;plugin&#45;alias.js</title>
<ellipse fill="none" stroke="#0c821d" stroke-width="4" cx="257.7028" cy="-347.0986" rx="257.9057" ry="257.9057"/>
<text text-anchor="middle" x="257.7028" y="-345.8986" font-family="Fira Code" font-size="12.00" fill="#0c821d">Ⓜ rollup&#45;plugin&#45;alias/dist/rollup&#45;plugin&#45;alias.js</text>
</g>
<!-- rollup.js&#45;&gt;Ⓜ rollup&#45;plugin&#45;alias/dist/rollup&#45;plugin&#45;alias.js -->
<g id="edge6" class="edge">
<title>rollup.js&#45;&gt;Ⓜ rollup&#45;plugin&#45;alias/dist/rollup&#45;plugin&#45;alias.js</title>
<path fill="none" stroke="#242424" d="M2305.7429,-823.6265C2023.919,-816.9053 685.5028,-780.6107 524.7028,-694.1972 473.4247,-666.6405 428.9349,-624.5161 391.7602,-579.0037"/>
<polygon fill="#242424" stroke="#242424" points="394.3764,-576.672 385.3819,-571.073 388.9217,-581.059 394.3764,-576.672"/>
</g>
<!-- Ⓜ rollup&#45;plugin&#45;babel&#45;minify/dist/rollup&#45;plugin&#45;babel&#45;minify.js -->
<g id="node9" class="node">
<title>Ⓜ rollup&#45;plugin&#45;babel&#45;minify/dist/rollup&#45;plugin&#45;babel&#45;minify.js</title>
<ellipse fill="none" stroke="#0c821d" stroke-width="4" cx="860.7028" cy="-347.0986" rx="327.4659" ry="327.4659"/>
<text text-anchor="middle" x="860.7028" y="-345.8986" font-family="Fira Code" font-size="12.00" fill="#0c821d">Ⓜ rollup&#45;plugin&#45;babel&#45;minify/dist/rollup&#45;plugin&#45;babel&#45;minify.js</text>
</g>
<!-- rollup.js&#45;&gt;Ⓜ rollup&#45;plugin&#45;babel&#45;minify/dist/rollup&#45;plugin&#45;babel&#45;minify.js -->
<g id="edge7" class="edge">
<title>rollup.js&#45;&gt;Ⓜ rollup&#45;plugin&#45;babel&#45;minify/dist/rollup&#45;plugin&#45;babel&#45;minify.js</title>
<path fill="none" stroke="#242424" d="M2305.8125,-823.5847C2107.207,-818.2169 1396.4851,-792.3926 1196.7028,-694.1972 1152.6,-672.5201 1111.0838,-642.5826 1073.2806,-609.3016"/>
<polygon fill="#242424" stroke="#242424" points="1075.5623,-606.6468 1065.7699,-602.6023 1070.9028,-611.8707 1075.5623,-606.6468"/>
</g>
<!-- Ⓜ rollup&#45;plugin&#45;buble/dist/rollup&#45;plugin&#45;buble.cjs.js -->
<g id="node10" class="node">
<title>Ⓜ rollup&#45;plugin&#45;buble/dist/rollup&#45;plugin&#45;buble.cjs.js</title>
<ellipse fill="none" stroke="#0c821d" stroke-width="4" cx="1483.7028" cy="-347.0986" rx="277.6371" ry="277.6371"/>
<text text-anchor="middle" x="1483.7028" y="-345.8986" font-family="Fira Code" font-size="12.00" fill="#0c821d">Ⓜ rollup&#45;plugin&#45;buble/dist/rollup&#45;plugin&#45;buble.cjs.js</text>
</g>
<!-- rollup.js&#45;&gt;Ⓜ rollup&#45;plugin&#45;buble/dist/rollup&#45;plugin&#45;buble.cjs.js -->
<g id="edge8" class="edge">
<title>rollup.js&#45;&gt;Ⓜ rollup&#45;plugin&#45;buble/dist/rollup&#45;plugin&#45;buble.cjs.js</title>
<path fill="none" stroke="#242424" d="M2306.4938,-817.7946C2180.811,-799.9083 1860.7418,-750.025 1769.7028,-694.1972 1723.4893,-665.8578 1681.3065,-627.3599 1644.3672,-586.2982"/>
<polygon fill="#242424" stroke="#242424" points="1646.7892,-583.7546 1637.531,-578.6031 1641.5559,-588.4037 1646.7892,-583.7546"/>
</g>
<!-- Ⓜ rollup&#45;plugin&#45;cleanup/dist/rollup&#45;plugin&#45;cleanup.js -->
<g id="node11" class="node">
<title>Ⓜ rollup&#45;plugin&#45;cleanup/dist/rollup&#45;plugin&#45;cleanup.js</title>
<ellipse fill="none" stroke="#0c821d" stroke-width="4" cx="2056.7028" cy="-347.0986" rx="277.6371" ry="277.6371"/>
<text text-anchor="middle" x="2056.7028" y="-345.8986" font-family="Fira Code" font-size="12.00" fill="#0c821d">Ⓜ rollup&#45;plugin&#45;cleanup/dist/rollup&#45;plugin&#45;cleanup.js</text>
</g>
<!-- rollup.js&#45;&gt;Ⓜ rollup&#45;plugin&#45;cleanup/dist/rollup&#45;plugin&#45;cleanup.js -->
<g id="edge9" class="edge">
<title>rollup.js&#45;&gt;Ⓜ rollup&#45;plugin&#45;cleanup/dist/rollup&#45;plugin&#45;cleanup.js</title>
<path fill="none" stroke="#242424" d="M2329.925,-780.7191C2301.9195,-736.2727 2256.3717,-663.9855 2210.4234,-591.0628"/>
<polygon fill="#242424" stroke="#242424" points="2213.1114,-588.7632 2204.8192,-582.1684 2207.189,-592.4949 2213.1114,-588.7632"/>
</g>
<!-- Ⓜ rollup&#45;plugin&#45;commonjs/dist/rollup&#45;plugin&#45;commonjs.cjs.js -->
<g id="node12" class="node">
<title>Ⓜ rollup&#45;plugin&#45;commonjs/dist/rollup&#45;plugin&#45;commonjs.cjs.js</title>
<ellipse fill="none" stroke="#0c821d" stroke-width="4" cx="2659.7028" cy="-347.0986" rx="307.2343" ry="307.2343"/>
<text text-anchor="middle" x="2659.7028" y="-345.8986" font-family="Fira Code" font-size="12.00" fill="#0c821d">Ⓜ rollup&#45;plugin&#45;commonjs/dist/rollup&#45;plugin&#45;commonjs.cjs.js</text>
</g>
<!-- rollup.js&#45;&gt;Ⓜ rollup&#45;plugin&#45;commonjs/dist/rollup&#45;plugin&#45;commonjs.cjs.js -->
<g id="edge10" class="edge">
<title>rollup.js&#45;&gt;Ⓜ rollup&#45;plugin&#45;commonjs/dist/rollup&#45;plugin&#45;commonjs.cjs.js</title>
<path fill="none" stroke="#242424" d="M2385.3039,-781.1446C2410.2132,-741.7428 2449.11,-680.2157 2489.8664,-615.7469"/>
<polygon fill="#242424" stroke="#242424" points="2492.9809,-617.3702 2495.3662,-607.0473 2487.0641,-613.6296 2492.9809,-617.3702"/>
</g>
<!-- Ⓜ rollup&#45;plugin&#45;git&#45;version/dist/rollup&#45;plugin&#45;git&#45;version.cjs.js -->
<g id="node13" class="node">
<title>Ⓜ rollup&#45;plugin&#45;git&#45;version/dist/rollup&#45;plugin&#45;git&#45;version.cjs.js</title>
<ellipse fill="none" stroke="#0c821d" stroke-width="4" cx="3322.7028" cy="-347.0986" rx="337.3316" ry="337.3316"/>
<text text-anchor="middle" x="3322.7028" y="-345.8986" font-family="Fira Code" font-size="12.00" fill="#0c821d">Ⓜ rollup&#45;plugin&#45;git&#45;version/dist/rollup&#45;plugin&#45;git&#45;version.cjs.js</text>
</g>
<!-- rollup.js&#45;&gt;Ⓜ rollup&#45;plugin&#45;git&#45;version/dist/rollup&#45;plugin&#45;git&#45;version.cjs.js -->
<g id="edge11" class="edge">
<title>rollup.js&#45;&gt;Ⓜ rollup&#45;plugin&#45;git&#45;version/dist/rollup&#45;plugin&#45;git&#45;version.cjs.js</title>
<path fill="none" stroke="#242424" d="M2409.2716,-817.7659C2539.2187,-799.4244 2876.7731,-747.8461 2975.7028,-694.1972 3017.6605,-671.4438 3057.8704,-642.0294 3095.0884,-609.9582"/>
<polygon fill="#242424" stroke="#242424" points="3097.7459,-612.2848 3102.9845,-603.0757 3093.1464,-607.008 3097.7459,-612.2848"/>
</g>
<!-- Ⓜ rollup&#45;plugin&#45;node&#45;resolve/dist/rollup&#45;plugin&#45;node&#45;resolve.cjs.js -->
<g id="node14" class="node">
<title>Ⓜ rollup&#45;plugin&#45;node&#45;resolve/dist/rollup&#45;plugin&#45;node&#45;resolve.cjs.js</title>
<ellipse fill="none" stroke="#0c821d" stroke-width="4" cx="4024.7028" cy="-347.0986" rx="347.1972" ry="347.1972"/>
<text text-anchor="middle" x="4024.7028" y="-345.8986" font-family="Fira Code" font-size="12.00" fill="#0c821d">Ⓜ rollup&#45;plugin&#45;node&#45;resolve/dist/rollup&#45;plugin&#45;node&#45;resolve.cjs.js</text>
</g>
<!-- rollup.js&#45;&gt;Ⓜ rollup&#45;plugin&#45;node&#45;resolve/dist/rollup&#45;plugin&#45;node&#45;resolve.cjs.js -->
<g id="edge12" class="edge">
<title>rollup.js&#45;&gt;Ⓜ rollup&#45;plugin&#45;node&#45;resolve/dist/rollup&#45;plugin&#45;node&#45;resolve.cjs.js</title>
<path fill="none" stroke="#242424" d="M2409.4784,-824.1678C2623.5211,-820.8536 3438.8246,-801.3031 3668.7028,-694.1972 3711.4361,-674.2867 3752.139,-647.0737 3789.7328,-616.5803"/>
<polygon fill="#242424" stroke="#242424" points="3792.205,-619.0789 3797.7074,-610.025 3787.7598,-613.6714 3792.205,-619.0789"/>
</g>
<!-- Ⓜ rollup&#45;plugin&#45;progress/dist/rollup&#45;plugin&#45;progress.js -->
<g id="node15" class="node">
<title>Ⓜ rollup&#45;plugin&#45;progress/dist/rollup&#45;plugin&#45;progress.js</title>
<ellipse fill="none" stroke="#0c821d" stroke-width="4" cx="4677.7028" cy="-347.0986" rx="287.5028" ry="287.5028"/>
<text text-anchor="middle" x="4677.7028" y="-345.8986" font-family="Fira Code" font-size="12.00" fill="#0c821d">Ⓜ rollup&#45;plugin&#45;progress/dist/rollup&#45;plugin&#45;progress.js</text>
</g>
<!-- rollup.js&#45;&gt;Ⓜ rollup&#45;plugin&#45;progress/dist/rollup&#45;plugin&#45;progress.js -->
<g id="edge13" class="edge">
<title>rollup.js&#45;&gt;Ⓜ rollup&#45;plugin&#45;progress/dist/rollup&#45;plugin&#45;progress.js</title>
<path fill="none" stroke="#242424" d="M2409.4889,-823.8563C2707.7549,-818.0811 4199.5105,-784.8159 4380.7028,-694.1972 4429.1159,-669.9846 4472.8252,-634.0107 4510.8975,-594.2679"/>
<polygon fill="#242424" stroke="#242424" points="4513.6224,-596.48 4517.9407,-586.8051 4508.5316,-591.6754 4513.6224,-596.48"/>
</g>
</g>
</svg>
