<?xml version="1.0" encoding="UTF-8" standalone="no"?>
<!DOCTYPE svg PUBLIC "-//W3C//DTD SVG 1.1//EN"
 "http://www.w3.org/Graphics/SVG/1.1/DTD/svg11.dtd">
<!-- Generated by graphviz version 2.40.1 (20161225.0304)
 -->
<!-- Title: G Pages: 1 -->
<svg width="676pt" height="732pt"
 viewBox="0.00 0.00 675.59 732.48" xmlns="http://www.w3.org/2000/svg" xmlns:xlink="http://www.w3.org/1999/xlink">
<g id="graph0" class="graph" transform="scale(1 1) rotate(0) translate(7.992 724.486)">
<title>G</title>
<polygon fill="#eeeeff" stroke="transparent" points="-7.992,7.992 -7.992,-724.486 667.5937,-724.486 667.5937,7.992 -7.992,7.992"/>
<!-- index.js -->
<g id="node1" class="node">
<title>index.js</title>
<ellipse fill="none" stroke="#242424" stroke-width="4" cx="301.8042" cy="-669.4857" rx="47.0167" ry="47.0167"/>
<text text-anchor="middle" x="301.8042" y="-667.0857" font-family="Fira Code" font-size="12.00" fill="#242424">index.js</text>
</g>
<!-- math/add.js -->
<g id="node2" class="node">
<title>math/add.js</title>
<ellipse fill="none" stroke="#242424" stroke-width="4" cx="60.8042" cy="-459.6799" rx="60.6091" ry="60.6091"/>
<text text-anchor="middle" x="60.8042" y="-457.2799" font-family="Fira Code" font-size="12.00" fill="#242424">math/add.js</text>
</g>
<!-- index.js&#45;&gt;math/add.js -->
<g id="edge1" class="edge">
<title>index.js&#45;&gt;math/add.js</title>
<path fill="none" stroke="#242424" d="M261.7332,-644.2923C225.4142,-620.5216 171.3724,-582.7577 129.8042,-543.4773 121.0294,-535.1854 112.3253,-525.796 104.2061,-516.3775"/>
<polygon fill="#242424" stroke="#242424" points="106.6626,-513.8617 97.5348,-508.4826 101.3159,-518.3798 106.6626,-513.8617"/>
</g>
<!-- math/divide.js -->
<g id="node3" class="node">
<title>math/divide.js</title>
<ellipse fill="none" stroke="#242424" stroke-width="4" cx="213.8042" cy="-459.6799" rx="74.7005" ry="74.7005"/>
<text text-anchor="middle" x="213.8042" y="-457.2799" font-family="Fira Code" font-size="12.00" fill="#242424">math/divide.js</text>
</g>
<!-- index.js&#45;&gt;math/divide.js -->
<g id="edge2" class="edge">
<title>index.js&#45;&gt;math/divide.js</title>
<path fill="none" stroke="#242424" d="M283.5706,-626.0138C272.9407,-600.6704 259.2129,-567.9413 246.7503,-538.2284"/>
<polygon fill="#242424" stroke="#242424" points="249.8495,-536.5684 242.754,-528.7005 243.3943,-539.276 249.8495,-536.5684"/>
</g>
<!-- math/multiply.js -->
<g id="node4" class="node">
<title>math/multiply.js</title>
<ellipse fill="none" stroke="#242424" stroke-width="4" cx="389.8042" cy="-459.6799" rx="83.5954" ry="83.5954"/>
<text text-anchor="middle" x="389.8042" y="-457.2799" font-family="Fira Code" font-size="12.00" fill="#242424">math/multiply.js</text>
</g>
<!-- index.js&#45;&gt;math/multiply.js -->
<g id="edge3" class="edge">
<title>index.js&#45;&gt;math/multiply.js</title>
<path fill="none" stroke="#242424" d="M320.0379,-626.0138C329.7172,-602.9369 341.965,-573.7361 353.4874,-546.2649"/>
<polygon fill="#242424" stroke="#242424" points="356.7221,-547.6017 357.3624,-537.0263 350.2669,-544.8942 356.7221,-547.6017"/>
</g>
<!-- math/subtract.js -->
<g id="node5" class="node">
<title>math/subtract.js</title>
<ellipse fill="none" stroke="#242424" stroke-width="4" cx="575.8042" cy="-459.6799" rx="83.5954" ry="83.5954"/>
<text text-anchor="middle" x="575.8042" y="-457.2799" font-family="Fira Code" font-size="12.00" fill="#242424">math/subtract.js</text>
</g>
<!-- index.js&#45;&gt;math/subtract.js -->
<g id="edge4" class="edge">
<title>index.js&#45;&gt;math/subtract.js</title>
<path fill="none" stroke="#242424" d="M341.6642,-643.8208C379.0381,-619.2752 436.0151,-580.6053 482.8042,-543.4773 490.6568,-537.2462 498.6988,-530.5401 506.607,-523.7325"/>
<polygon fill="#242424" stroke="#242424" points="509.2093,-526.1079 514.4587,-516.9049 504.616,-520.8256 509.2093,-526.1079"/>
</g>
<!-- Ⓜkatsu&#45;curry/katsu&#45;curry.js -->
<g id="node6" class="node">
<title>Ⓜkatsu&#45;curry/katsu&#45;curry.js</title>
<ellipse fill="none" stroke="#0c821d" stroke-width="4" cx="301.8042" cy="-148.4412" rx="148.3825" ry="148.3825"/>
<text text-anchor="middle" x="301.8042" y="-147.2412" font-family="Fira Code" font-size="12.00" fill="#0c821d">Ⓜkatsu&#45;curry/katsu&#45;curry.js</text>
</g>
<!-- math/add.js&#45;&gt;Ⓜkatsu&#45;curry/katsu&#45;curry.js -->
<g id="edge5" class="edge">
<title>math/add.js&#45;&gt;Ⓜkatsu&#45;curry/katsu&#45;curry.js</title>
<path fill="none" stroke="#242424" d="M98.1961,-411.3903C126.6255,-374.6753 167.0883,-322.4197 204.4625,-274.1529"/>
<polygon fill="#242424" stroke="#242424" points="207.318,-276.1819 210.673,-266.1323 201.7832,-271.8962 207.318,-276.1819"/>
</g>
<!-- math/divide.js&#45;&gt;Ⓜkatsu&#45;curry/katsu&#45;curry.js -->
<g id="edge6" class="edge">
<title>math/divide.js&#45;&gt;Ⓜkatsu&#45;curry/katsu&#45;curry.js</title>
<path fill="none" stroke="#242424" d="M234.1037,-387.8847C241.4549,-361.8849 250.0642,-331.4356 258.6316,-301.1343"/>
<polygon fill="#242424" stroke="#242424" points="262.0573,-301.8822 261.4102,-291.3072 255.3214,-299.9777 262.0573,-301.8822"/>
</g>
<!-- math/multiply.js&#45;&gt;Ⓜkatsu&#45;curry/katsu&#45;curry.js -->
<g id="edge7" class="edge">
<title>math/multiply.js&#45;&gt;Ⓜkatsu&#45;curry/katsu&#45;curry.js</title>
<path fill="none" stroke="#242424" d="M366.913,-378.7181C360.1777,-354.8965 352.5775,-328.0162 345.0087,-301.247"/>
<polygon fill="#242424" stroke="#242424" points="348.3121,-300.066 342.2233,-291.3955 341.5762,-301.9706 348.3121,-300.066"/>
</g>
<!-- math/subtract.js&#45;&gt;Ⓜkatsu&#45;curry/katsu&#45;curry.js -->
<g id="edge8" class="edge">
<title>math/subtract.js&#45;&gt;Ⓜkatsu&#45;curry/katsu&#45;curry.js</title>
<path fill="none" stroke="#242424" d="M520.3563,-396.6961C487.7614,-359.6713 445.4832,-311.6472 406.8083,-267.7162"/>
<polygon fill="#242424" stroke="#242424" points="409.3698,-265.3289 400.1349,-260.1358 404.1157,-269.9543 409.3698,-265.3289"/>
</g>
</g>
</svg>
