<?xml version="1.0" encoding="UTF-8" standalone="no"?>
<!DOCTYPE svg PUBLIC "-//W3C//DTD SVG 1.1//EN"
 "http://www.w3.org/Graphics/SVG/1.1/DTD/svg11.dtd">
<!-- Generated by graphviz version 2.40.1 (20161225.0304)
 -->
<!-- Title: G Pages: 1 -->
<svg width="676pt" height="569pt"
 viewBox="0.00 0.00 675.59 569.39" xmlns="http://www.w3.org/2000/svg" xmlns:xlink="http://www.w3.org/1999/xlink">
<g id="graph0" class="graph" transform="scale(1 1) rotate(0) translate(7.992 561.4022)">
<title>G</title>
<polygon fill="#eeeeff" stroke="transparent" points="-7.992,7.992 -7.992,-561.4022 667.5937,-561.4022 667.5937,7.992 -7.992,7.992"/>
<!-- index.js -->
<g id="node1" class="node">
<title>index.js</title>
<ellipse fill="none" stroke="#0c821d" stroke-width="4" cx="574.8042" cy="-143.0083" rx="47.0167" ry="47.0167"/>
<text text-anchor="middle" x="574.8042" y="-140.6083" font-family="Fira Code" font-size="12.00" fill="#0c821d">index.js</text>
</g>
<!-- math/add.js -->
<g id="node2" class="node">
<title>math/add.js</title>
<ellipse fill="none" stroke="#242424" stroke-width="4" cx="60.8042" cy="-469.6128" rx="60.6091" ry="60.6091"/>
<text text-anchor="middle" x="60.8042" y="-467.2128" font-family="Fira Code" font-size="12.00" fill="#242424">math/add.js</text>
</g>
<!-- Ⓜ katsu&#45;curry/katsu&#45;curry.js -->
<g id="node3" class="node">
<title>Ⓜ katsu&#45;curry/katsu&#45;curry.js</title>
<ellipse fill="none" stroke="#0c821d" stroke-width="4" cx="301.8042" cy="-153.4077" rx="153.3154" ry="153.3154"/>
<text text-anchor="middle" x="301.8042" y="-152.2077" font-family="Fira Code" font-size="12.00" fill="#0c821d">Ⓜ katsu&#45;curry/katsu&#45;curry.js</text>
</g>
<!-- math/add.js&#45;&gt;Ⓜ katsu&#45;curry/katsu&#45;curry.js -->
<g id="edge1" class="edge">
<title>math/add.js&#45;&gt;Ⓜ katsu&#45;curry/katsu&#45;curry.js</title>
<path fill="none" stroke="#242424" d="M97.6693,-421.2438C125.6479,-384.5343 165.4967,-332.2506 202.5715,-283.6064"/>
<polygon fill="#242424" stroke="#242424" points="205.457,-285.5944 208.7351,-275.5194 199.8897,-281.3512 205.457,-285.5944"/>
</g>
<!-- math/divide.js -->
<g id="node4" class="node">
<title>math/divide.js</title>
<ellipse fill="none" stroke="#242424" stroke-width="4" cx="213.8042" cy="-469.6128" rx="74.7005" ry="74.7005"/>
<text text-anchor="middle" x="213.8042" y="-467.2128" font-family="Fira Code" font-size="12.00" fill="#242424">math/divide.js</text>
</g>
<!-- math/divide.js&#45;&gt;Ⓜ katsu&#45;curry/katsu&#45;curry.js -->
<g id="edge2" class="edge">
<title>math/divide.js&#45;&gt;Ⓜ katsu&#45;curry/katsu&#45;curry.js</title>
<path fill="none" stroke="#242424" d="M233.8829,-397.4653C241.0693,-371.6427 249.4789,-341.425 257.8846,-311.2214"/>
<polygon fill="#242424" stroke="#242424" points="261.3027,-311.9934 260.6121,-301.4211 254.559,-310.1166 261.3027,-311.9934"/>
</g>
<!-- math/multiply.js -->
<g id="node5" class="node">
<title>math/multiply.js</title>
<ellipse fill="none" stroke="#242424" stroke-width="4" cx="389.8042" cy="-469.6128" rx="83.5954" ry="83.5954"/>
<text text-anchor="middle" x="389.8042" y="-467.2128" font-family="Fira Code" font-size="12.00" fill="#242424">math/multiply.js</text>
</g>
<!-- math/multiply.js&#45;&gt;Ⓜ katsu&#45;curry/katsu&#45;curry.js -->
<g id="edge3" class="edge">
<title>math/multiply.js&#45;&gt;Ⓜ katsu&#45;curry/katsu&#45;curry.js</title>
<path fill="none" stroke="#242424" d="M367.2563,-388.5927C360.6573,-364.8807 353.2059,-338.1061 345.7563,-311.338"/>
<polygon fill="#242424" stroke="#242424" points="349.0665,-310.1775 343.0134,-301.482 342.3227,-312.0543 349.0665,-310.1775"/>
</g>
<!-- math/subtract.js -->
<g id="node6" class="node">
<title>math/subtract.js</title>
<ellipse fill="none" stroke="#242424" stroke-width="4" cx="575.8042" cy="-469.6128" rx="83.5954" ry="83.5954"/>
<text text-anchor="middle" x="575.8042" y="-467.2128" font-family="Fira Code" font-size="12.00" fill="#242424">math/subtract.js</text>
</g>
<!-- math/subtract.js&#45;&gt;Ⓜ katsu&#45;curry/katsu&#45;curry.js -->
<g id="edge4" class="edge">
<title>math/subtract.js&#45;&gt;Ⓜ katsu&#45;curry/katsu&#45;curry.js</title>
<path fill="none" stroke="#242424" d="M520.6859,-406.0043C488.6289,-369.0095 447.1242,-321.1117 408.888,-276.9859"/>
<polygon fill="#242424" stroke="#242424" points="411.4811,-274.6338 402.2873,-269.3684 406.1909,-279.2179 411.4811,-274.6338"/>
</g>
</g>
</svg>
