<?xml version="1.0" encoding="UTF-8" standalone="no"?>
<!DOCTYPE svg PUBLIC "-//W3C//DTD SVG 1.1//EN"
 "http://www.w3.org/Graphics/SVG/1.1/DTD/svg11.dtd">
<!-- Generated by graphviz version 2.40.1 (20161225.0304)
 -->
<!-- Title: G Pages: 1 -->
<svg width="5276pt" height="1364pt"
 viewBox="0.00 0.00 5275.99 1363.58" xmlns="http://www.w3.org/2000/svg" xmlns:xlink="http://www.w3.org/1999/xlink">
<g id="graph0" class="graph" transform="scale(1 1) rotate(0) translate(7.992 1355.5869)">
<title>G</title>
<polygon fill="#eeeeff" stroke="transparent" points="-7.992,7.992 -7.992,-1355.5869 5268.0017,-1355.5869 5268.0017,7.992 -7.992,7.992"/>
<!-- ../package.json -->
<g id="node1" class="node">
<title>../package.json</title>
<ellipse fill="none" stroke="#0c821d" stroke-width="4" cx="973.5083" cy="-856.9947" rx="79.3981" ry="79.3981"/>
<text text-anchor="middle" x="973.5083" y="-854.5947" font-family="Fira Code" font-size="12.00" fill="#0c821d">../package.json</text>
</g>
<!-- index.js -->
<g id="node2" class="node">
<title>index.js</title>
<ellipse fill="none" stroke="#242424" stroke-width="4" cx="1154.5083" cy="-1066.8005" rx="47.0167" ry="47.0167"/>
<text text-anchor="middle" x="1154.5083" y="-1064.4005" font-family="Fira Code" font-size="12.00" fill="#242424">index.js</text>
</g>
<!-- index.js&#45;&gt;../package.json -->
<g id="edge1" class="edge">
<title>index.js&#45;&gt;../package.json</title>
<path fill="none" stroke="#242424" d="M1123.3933,-1030.7336C1098.3977,-1001.7599 1062.5812,-960.2433 1032.228,-925.0595"/>
<polygon fill="#242424" stroke="#242424" points="1034.6243,-922.4789 1025.442,-917.1934 1029.324,-927.0514 1034.6243,-922.4789"/>
</g>
<!-- tools/builder.js -->
<g id="node3" class="node">
<title>tools/builder.js</title>
<ellipse fill="none" stroke="#242424" stroke-width="4" cx="1154.5083" cy="-856.9947" rx="83.5954" ry="83.5954"/>
<text text-anchor="middle" x="1154.5083" y="-854.5947" font-family="Fira Code" font-size="12.00" fill="#242424">tools/builder.js</text>
</g>
<!-- index.js&#45;&gt;tools/builder.js -->
<g id="edge2" class="edge">
<title>index.js&#45;&gt;tools/builder.js</title>
<path fill="none" stroke="#242424" d="M1154.5083,-1019.7159C1154.5083,-999.4189 1154.5083,-974.9222 1154.5083,-951.1672"/>
<polygon fill="#242424" stroke="#242424" points="1158.0084,-951.0463 1154.5083,-941.0463 1151.0084,-951.0464 1158.0084,-951.0463"/>
</g>
<!-- tools/rollup.js -->
<g id="node4" class="node">
<title>tools/rollup.js</title>
<ellipse fill="none" stroke="#242424" stroke-width="4" cx="2351.5083" cy="-856.9947" rx="79.3981" ry="79.3981"/>
<text text-anchor="middle" x="2351.5083" y="-854.5947" font-family="Fira Code" font-size="12.00" fill="#242424">tools/rollup.js</text>
</g>
<!-- index.js&#45;&gt;tools/rollup.js -->
<g id="edge3" class="edge">
<title>index.js&#45;&gt;tools/rollup.js</title>
<path fill="none" stroke="#242424" d="M1201.0648,-1058.6402C1380.1373,-1027.253 2026.3075,-913.9947 2263.4468,-872.4298"/>
<polygon fill="#242424" stroke="#242424" points="2264.1639,-875.8575 2273.4095,-870.6836 2262.9554,-868.9626 2264.1639,-875.8575"/>
</g>
<!-- Ⓜ nps&#45;utils/dist/index.js -->
<g id="node9" class="node">
<title>Ⓜ nps&#45;utils/dist/index.js</title>
<ellipse fill="none" stroke="#0c821d" stroke-width="4" cx="138.5083" cy="-347.0986" rx="138.5167" ry="138.5167"/>
<text text-anchor="middle" x="138.5083" y="-345.8986" font-family="Fira Code" font-size="12.00" fill="#0c821d">Ⓜ nps&#45;utils/dist/index.js</text>
</g>
<!-- tools/builder.js&#45;&gt;Ⓜ nps&#45;utils/dist/index.js -->
<g id="edge4" class="edge">
<title>tools/builder.js&#45;&gt;Ⓜ nps&#45;utils/dist/index.js</title>
<path fill="none" stroke="#242424" d="M1097.2358,-795.5975C1086.2032,-786.7672 1074.124,-778.7921 1061.5083,-773.1972 903.0559,-702.9257 424.9716,-797.1307 285.5083,-694.1972 221.2654,-646.7815 184.8681,-565.7184 164.3666,-493.8516"/>
<polygon fill="#242424" stroke="#242424" points="167.6187,-492.4804 161.578,-483.7764 160.8724,-494.3477 167.6187,-492.4804"/>
</g>
<!-- Ⓜ rollup&#45;plugin&#45;alias/dist/rollup&#45;plugin&#45;alias.js -->
<g id="node10" class="node">
<title>Ⓜ rollup&#45;plugin&#45;alias/dist/rollup&#45;plugin&#45;alias.js</title>
<ellipse fill="none" stroke="#0c821d" stroke-width="4" cx="552.5083" cy="-347.0986" rx="257.9057" ry="257.9057"/>
<text text-anchor="middle" x="552.5083" y="-345.8986" font-family="Fira Code" font-size="12.00" fill="#0c821d">Ⓜ rollup&#45;plugin&#45;alias/dist/rollup&#45;plugin&#45;alias.js</text>
</g>
<!-- tools/rollup.js&#45;&gt;Ⓜ rollup&#45;plugin&#45;alias/dist/rollup&#45;plugin&#45;alias.js -->
<g id="edge5" class="edge">
<title>tools/rollup.js&#45;&gt;Ⓜ rollup&#45;plugin&#45;alias/dist/rollup&#45;plugin&#45;alias.js</title>
<path fill="none" stroke="#242424" d="M2272.2528,-852.2281C1976.4246,-833.9413 947.2053,-765.7066 819.5083,-694.1972 769.03,-665.9297 724.9692,-623.7975 687.971,-578.541"/>
<polygon fill="#242424" stroke="#242424" points="690.6196,-576.2497 681.6208,-570.6573 685.1681,-580.6407 690.6196,-576.2497"/>
</g>
<!-- Ⓜ rollup&#45;plugin&#45;babel&#45;minify/dist/rollup&#45;plugin&#45;babel&#45;minify.js -->
<g id="node11" class="node">
<title>Ⓜ rollup&#45;plugin&#45;babel&#45;minify/dist/rollup&#45;plugin&#45;babel&#45;minify.js</title>
<ellipse fill="none" stroke="#0c821d" stroke-width="4" cx="1155.5083" cy="-347.0986" rx="327.4659" ry="327.4659"/>
<text text-anchor="middle" x="1155.5083" y="-345.8986" font-family="Fira Code" font-size="12.00" fill="#0c821d">Ⓜ rollup&#45;plugin&#45;babel&#45;minify/dist/rollup&#45;plugin&#45;babel&#45;minify.js</text>
</g>
<!-- tools/rollup.js&#45;&gt;Ⓜ rollup&#45;plugin&#45;babel&#45;minify/dist/rollup&#45;plugin&#45;babel&#45;minify.js -->
<g id="edge6" class="edge">
<title>tools/rollup.js&#45;&gt;Ⓜ rollup&#45;plugin&#45;babel&#45;minify/dist/rollup&#45;plugin&#45;babel&#45;minify.js</title>
<path fill="none" stroke="#242424" d="M2272.6166,-848.241C2086.7902,-826.6459 1627.0273,-767.243 1491.5083,-694.1972 1448.596,-671.0671 1407.8487,-640.5468 1370.4956,-607.1846"/>
<polygon fill="#242424" stroke="#242424" points="1372.8369,-604.5829 1363.0706,-600.4756 1368.1439,-609.7768 1372.8369,-604.5829"/>
</g>
<!-- Ⓜ rollup&#45;plugin&#45;buble/dist/rollup&#45;plugin&#45;buble.cjs.js -->
<g id="node12" class="node">
<title>Ⓜ rollup&#45;plugin&#45;buble/dist/rollup&#45;plugin&#45;buble.cjs.js</title>
<ellipse fill="none" stroke="#0c821d" stroke-width="4" cx="1778.5083" cy="-347.0986" rx="277.6371" ry="277.6371"/>
<text text-anchor="middle" x="1778.5083" y="-345.8986" font-family="Fira Code" font-size="12.00" fill="#0c821d">Ⓜ rollup&#45;plugin&#45;buble/dist/rollup&#45;plugin&#45;buble.cjs.js</text>
</g>
<!-- tools/rollup.js&#45;&gt;Ⓜ rollup&#45;plugin&#45;buble/dist/rollup&#45;plugin&#45;buble.cjs.js -->
<g id="edge7" class="edge">
<title>tools/rollup.js&#45;&gt;Ⓜ rollup&#45;plugin&#45;buble/dist/rollup&#45;plugin&#45;buble.cjs.js</title>
<path fill="none" stroke="#242424" d="M2278.7817,-824.9504C2217.8125,-796.0194 2130.4048,-749.5654 2064.5083,-694.1972 2023.9884,-660.1512 1984.8759,-619.8011 1949.266,-578.872"/>
<polygon fill="#242424" stroke="#242424" points="1951.8444,-576.5027 1942.6581,-571.2243 1946.5477,-581.0793 1951.8444,-576.5027"/>
</g>
<!-- Ⓜ rollup&#45;plugin&#45;cleanup/dist/rollup&#45;plugin&#45;cleanup.js -->
<g id="node13" class="node">
<title>Ⓜ rollup&#45;plugin&#45;cleanup/dist/rollup&#45;plugin&#45;cleanup.js</title>
<ellipse fill="none" stroke="#0c821d" stroke-width="4" cx="2351.5083" cy="-347.0986" rx="277.6371" ry="277.6371"/>
<text text-anchor="middle" x="2351.5083" y="-345.8986" font-family="Fira Code" font-size="12.00" fill="#0c821d">Ⓜ rollup&#45;plugin&#45;cleanup/dist/rollup&#45;plugin&#45;cleanup.js</text>
</g>
<!-- tools/rollup.js&#45;&gt;Ⓜ rollup&#45;plugin&#45;cleanup/dist/rollup&#45;plugin&#45;cleanup.js -->
<g id="edge8" class="edge">
<title>tools/rollup.js&#45;&gt;Ⓜ rollup&#45;plugin&#45;cleanup/dist/rollup&#45;plugin&#45;cleanup.js</title>
<path fill="none" stroke="#242424" d="M2351.5083,-777.6033C2351.5083,-738.0273 2351.5083,-687.4797 2351.5083,-635.038"/>
<polygon fill="#242424" stroke="#242424" points="2355.0084,-634.8773 2351.5083,-624.8774 2348.0084,-634.8774 2355.0084,-634.8773"/>
</g>
<!-- Ⓜ rollup&#45;plugin&#45;commonjs/dist/rollup&#45;plugin&#45;commonjs.cjs.js -->
<g id="node14" class="node">
<title>Ⓜ rollup&#45;plugin&#45;commonjs/dist/rollup&#45;plugin&#45;commonjs.cjs.js</title>
<ellipse fill="none" stroke="#0c821d" stroke-width="4" cx="2954.5083" cy="-347.0986" rx="307.2343" ry="307.2343"/>
<text text-anchor="middle" x="2954.5083" y="-345.8986" font-family="Fira Code" font-size="12.00" fill="#0c821d">Ⓜ rollup&#45;plugin&#45;commonjs/dist/rollup&#45;plugin&#45;commonjs.cjs.js</text>
</g>
<!-- tools/rollup.js&#45;&gt;Ⓜ rollup&#45;plugin&#45;commonjs/dist/rollup&#45;plugin&#45;commonjs.cjs.js -->
<g id="edge9" class="edge">
<title>tools/rollup.js&#45;&gt;Ⓜ rollup&#45;plugin&#45;commonjs/dist/rollup&#45;plugin&#45;commonjs.cjs.js</title>
<path fill="none" stroke="#242424" d="M2423.8484,-823.9624C2484.3823,-794.5069 2571.3779,-747.8335 2638.5083,-694.1972 2677.1559,-663.3184 2715.2427,-627.5675 2750.8617,-590.9912"/>
<polygon fill="#242424" stroke="#242424" points="2753.5118,-593.2857 2757.952,-583.6661 2748.4821,-588.4171 2753.5118,-593.2857"/>
</g>
<!-- Ⓜ rollup&#45;plugin&#45;git&#45;version/dist/rollup&#45;plugin&#45;git&#45;version.cjs.js -->
<g id="node15" class="node">
<title>Ⓜ rollup&#45;plugin&#45;git&#45;version/dist/rollup&#45;plugin&#45;git&#45;version.cjs.js</title>
<ellipse fill="none" stroke="#0c821d" stroke-width="4" cx="3617.5083" cy="-347.0986" rx="337.3316" ry="337.3316"/>
<text text-anchor="middle" x="3617.5083" y="-345.8986" font-family="Fira Code" font-size="12.00" fill="#0c821d">Ⓜ rollup&#45;plugin&#45;git&#45;version/dist/rollup&#45;plugin&#45;git&#45;version.cjs.js</text>
</g>
<!-- tools/rollup.js&#45;&gt;Ⓜ rollup&#45;plugin&#45;git&#45;version/dist/rollup&#45;plugin&#45;git&#45;version.cjs.js -->
<g id="edge10" class="edge">
<title>tools/rollup.js&#45;&gt;Ⓜ rollup&#45;plugin&#45;git&#45;version/dist/rollup&#45;plugin&#45;git&#45;version.cjs.js</title>
<path fill="none" stroke="#242424" d="M2430.6399,-849.1394C2625.5662,-828.8192 3123.6755,-770.721 3270.5083,-694.1972 3313.0116,-672.0461 3353.5894,-642.872 3391.036,-610.8305"/>
<polygon fill="#242424" stroke="#242424" points="3393.7112,-613.1437 3398.9788,-603.9511 3389.1284,-607.8525 3393.7112,-613.1437"/>
</g>
<!-- Ⓜ rollup&#45;plugin&#45;node&#45;resolve/dist/rollup&#45;plugin&#45;node&#45;resolve.cjs.js -->
<g id="node16" class="node">
<title>Ⓜ rollup&#45;plugin&#45;node&#45;resolve/dist/rollup&#45;plugin&#45;node&#45;resolve.cjs.js</title>
<ellipse fill="none" stroke="#0c821d" stroke-width="4" cx="4319.5083" cy="-347.0986" rx="347.1972" ry="347.1972"/>
<text text-anchor="middle" x="4319.5083" y="-345.8986" font-family="Fira Code" font-size="12.00" fill="#0c821d">Ⓜ rollup&#45;plugin&#45;node&#45;resolve/dist/rollup&#45;plugin&#45;node&#45;resolve.cjs.js</text>
</g>
<!-- tools/rollup.js&#45;&gt;Ⓜ rollup&#45;plugin&#45;node&#45;resolve/dist/rollup&#45;plugin&#45;node&#45;resolve.cjs.js -->
<g id="edge11" class="edge">
<title>tools/rollup.js&#45;&gt;Ⓜ rollup&#45;plugin&#45;node&#45;resolve/dist/rollup&#45;plugin&#45;node&#45;resolve.cjs.js</title>
<path fill="none" stroke="#242424" d="M2431.1117,-855.8346C2716.535,-850.6248 3686.3182,-823.5752 3963.5083,-694.1972 4006.2282,-674.2578 4046.9234,-647.0282 4084.5134,-616.5266"/>
<polygon fill="#242424" stroke="#242424" points="4086.9862,-619.0245 4092.4872,-609.9697 4082.5402,-613.6178 4086.9862,-619.0245"/>
</g>
<!-- Ⓜ rollup&#45;plugin&#45;progress/dist/rollup&#45;plugin&#45;progress.js -->
<g id="node17" class="node">
<title>Ⓜ rollup&#45;plugin&#45;progress/dist/rollup&#45;plugin&#45;progress.js</title>
<ellipse fill="none" stroke="#0c821d" stroke-width="4" cx="4972.5083" cy="-347.0986" rx="287.5028" ry="287.5028"/>
<text text-anchor="middle" x="4972.5083" y="-345.8986" font-family="Fira Code" font-size="12.00" fill="#0c821d">Ⓜ rollup&#45;plugin&#45;progress/dist/rollup&#45;plugin&#45;progress.js</text>
</g>
<!-- tools/rollup.js&#45;&gt;Ⓜ rollup&#45;plugin&#45;progress/dist/rollup&#45;plugin&#45;progress.js -->
<g id="edge12" class="edge">
<title>tools/rollup.js&#45;&gt;Ⓜ rollup&#45;plugin&#45;progress/dist/rollup&#45;plugin&#45;progress.js</title>
<path fill="none" stroke="#242424" d="M2430.7274,-855.0622C2814.6124,-845.2161 4471.2908,-797.0299 4675.5083,-694.1972 4723.8551,-669.8524 4767.5334,-633.8168 4805.596,-594.0546"/>
<polygon fill="#242424" stroke="#242424" points="4808.3224,-596.2649 4812.6377,-586.5887 4803.2301,-591.462 4808.3224,-596.2649"/>
</g>
<!-- math/add.js -->
<g id="node5" class="node">
<title>math/add.js</title>
<ellipse fill="none" stroke="#0c821d" stroke-width="4" cx="3128.5083" cy="-1122.8042" rx="60.6091" ry="60.6091"/>
<text text-anchor="middle" x="3128.5083" y="-1120.4043" font-family="Fira Code" font-size="12.00" fill="#0c821d">math/add.js</text>
</g>
<!-- math/divide.js -->
<g id="node6" class="node">
<title>math/divide.js</title>
<ellipse fill="none" stroke="#0c821d" stroke-width="4" cx="2788.5083" cy="-1136.6002" rx="74.7005" ry="74.7005"/>
<text text-anchor="middle" x="2788.5083" y="-1134.2002" font-family="Fira Code" font-size="12.00" fill="#0c821d">math/divide.js</text>
</g>
<!-- math/multiply.js -->
<g id="node7" class="node">
<title>math/multiply.js</title>
<ellipse fill="none" stroke="#0c821d" stroke-width="4" cx="2443.5083" cy="-1263.7975" rx="83.5954" ry="83.5954"/>
<text text-anchor="middle" x="2443.5083" y="-1261.3975" font-family="Fira Code" font-size="12.00" fill="#0c821d">math/multiply.js</text>
</g>
<!-- math/subtract.js -->
<g id="node8" class="node">
<title>math/subtract.js</title>
<ellipse fill="none" stroke="#0c821d" stroke-width="4" cx="2089.5083" cy="-1263.7975" rx="83.5954" ry="83.5954"/>
<text text-anchor="middle" x="2089.5083" y="-1261.3975" font-family="Fira Code" font-size="12.00" fill="#0c821d">math/subtract.js</text>
</g>
</g>
</svg>
